<svg width="66" height="66" viewBox="0 0 66 66" fill="none" xmlns="http://www.w3.org/2000/svg">
<path d="M8.99987 -0.000132605C8.23224 -0.000132605 7.46377 0.292273 6.87877 0.878774L0.878774 6.87877C-0.294227 8.05177 -0.294227 9.95096 0.878774 11.121L22.7577 32.9999L0.878774 54.8788C-0.294227 56.0518 -0.294227 57.951 0.878774 59.121L6.87877 65.121C8.05177 66.294 9.95096 66.294 11.121 65.121L32.9999 43.2421L54.8788 65.121C56.0488 66.294 57.951 66.294 59.121 65.121L65.121 59.121C66.294 57.948 66.294 56.0488 65.121 54.8788L43.2421 32.9999L65.121 11.121C66.294 9.95096 66.294 8.04877 65.121 6.87877L59.121 0.878774C57.948 -0.294227 56.0488 -0.294227 54.8788 0.878774L32.9999 22.7577L11.121 0.878774C10.5345 0.292273 9.76749 -0.000132605 8.99987 -0.000132605Z" fill="white"/>
</svg>
