<svg width="32" height="32" viewBox="0 0 32 32" fill="none" xmlns="http://www.w3.org/2000/svg">
<path d="M15.9999 10.6667C17.4666 10.6667 18.6666 9.46671 18.6666 8.00004C18.6666 6.53337 17.4666 5.33337 15.9999 5.33337C14.5333 5.33337 13.3333 6.53337 13.3333 8.00004C13.3333 9.46671 14.5333 10.6667 15.9999 10.6667ZM15.9999 13.3334C14.5333 13.3334 13.3333 14.5334 13.3333 16C13.3333 17.4667 14.5333 18.6667 15.9999 18.6667C17.4666 18.6667 18.6666 17.4667 18.6666 16C18.6666 14.5334 17.4666 13.3334 15.9999 13.3334ZM15.9999 21.3334C14.5333 21.3334 13.3333 22.5334 13.3333 24C13.3333 25.4667 14.5333 26.6667 15.9999 26.6667C17.4666 26.6667 18.6666 25.4667 18.6666 24C18.6666 22.5334 17.4666 21.3334 15.9999 21.3334Z" fill="white"/>
</svg>
