<svg width="24" height="24" viewBox="0 0 24 24" fill="none" xmlns="http://www.w3.org/2000/svg">
<circle cx="12" cy="12" r="11.5" stroke="white"/>
<path d="M10.7969 14.6534V14.5455C10.8045 13.8409 10.8745 13.2803 11.0071 12.8636C11.1435 12.447 11.3366 12.1098 11.5866 11.8523C11.8366 11.5947 12.1378 11.3598 12.4901 11.1477C12.7173 11.0038 12.9219 10.8428 13.1037 10.6648C13.2855 10.4867 13.4295 10.2822 13.5355 10.0511C13.6416 9.82008 13.6946 9.56439 13.6946 9.28409C13.6946 8.94697 13.6151 8.6553 13.456 8.40909C13.2969 8.16288 13.0848 7.97348 12.8196 7.84091C12.5582 7.70455 12.2666 7.63636 11.9446 7.63636C11.6529 7.63636 11.3745 7.69697 11.1094 7.81818C10.8442 7.93939 10.6245 8.12879 10.4503 8.38636C10.276 8.64015 10.1757 8.9678 10.1491 9.36932H8.42188C8.44839 8.6875 8.62074 8.11174 8.93892 7.64205C9.2571 7.16856 9.67756 6.81061 10.2003 6.56818C10.7268 6.32576 11.3082 6.20455 11.9446 6.20455C12.6416 6.20455 13.2514 6.33523 13.7741 6.59659C14.2969 6.85417 14.7022 7.21591 14.9901 7.68182C15.2817 8.14394 15.4276 8.68371 15.4276 9.30114C15.4276 9.72538 15.3613 10.108 15.2287 10.4489C15.0961 10.786 14.9067 11.0871 14.6605 11.3523C14.4181 11.6174 14.1264 11.8523 13.7855 12.0568C13.4635 12.2576 13.2022 12.4659 13.0014 12.6818C12.8045 12.8977 12.6605 13.1534 12.5696 13.4489C12.4787 13.7443 12.4295 14.1098 12.4219 14.5455V14.6534H10.7969ZM11.6548 18.108C11.3442 18.108 11.0772 17.9981 10.8537 17.7784C10.6302 17.5549 10.5185 17.286 10.5185 16.9716C10.5185 16.661 10.6302 16.3958 10.8537 16.1761C11.0772 15.9527 11.3442 15.8409 11.6548 15.8409C11.9616 15.8409 12.2268 15.9527 12.4503 16.1761C12.6776 16.3958 12.7912 16.661 12.7912 16.9716C12.7912 17.1799 12.7382 17.3712 12.6321 17.5455C12.5298 17.7159 12.3935 17.8523 12.223 17.9545C12.0526 18.0568 11.8632 18.108 11.6548 18.108Z" fill="white"/>
</svg>
