<svg width="21" height="21" viewBox="0 0 21 21" fill="none" xmlns="http://www.w3.org/2000/svg">
<path d="M8.0469 1.83128L7.76225 3.49422C7.7079 3.81173 7.50393 4.08361 7.21431 4.22461L6.50452 4.57017C6.26786 4.68538 5.99532 4.70265 5.74602 4.61822L3.98892 4.02314C3.5241 3.86571 3.01374 4.06885 2.78423 4.50264L1.40091 7.11724C1.17022 7.55327 1.29195 8.09238 1.68761 8.38698L2.77965 9.20009C3.03309 9.3888 3.18243 9.68619 3.18243 10.0022V11.1228C3.18243 11.4388 3.03309 11.7362 2.77965 11.9249L1.68761 12.738C1.29195 13.0326 1.17022 13.5717 1.40091 14.0078L2.75343 16.5642C2.99611 17.0228 3.54932 17.2197 4.02719 17.0174L5.5818 16.3592C5.92232 16.2151 6.31459 16.2706 6.60173 16.5036L7.394 17.1464C7.57598 17.2941 7.70032 17.501 7.74532 17.731L8.03112 19.192C8.12294 19.6614 8.53426 20 9.01252 20H11.9337C12.3775 20 12.7683 19.7074 12.8932 19.2816L13.365 17.6738C13.4221 17.4792 13.537 17.3066 13.6945 17.1788L14.518 16.5106C14.8097 16.2739 15.2094 16.2207 15.5528 16.3727L16.965 16.9977C17.4452 17.2102 18.008 17.0151 18.2536 16.5509L19.5991 14.0078C19.8298 13.5717 19.7081 13.0326 19.3124 12.738L18.2204 11.9249C17.9669 11.7362 17.8176 11.4388 17.8176 11.1228V10.0022C17.8176 9.68619 17.9669 9.3888 18.2204 9.20009L19.2621 8.42445C19.6792 8.11387 19.7886 7.53543 19.5138 7.09393L17.8789 4.46734C17.6211 4.05314 17.102 3.88545 16.6506 4.07052L15.4076 4.58011C15.144 4.6882 14.8468 4.67869 14.5906 4.55396L13.8685 4.20245C13.6047 4.07402 13.4106 3.83621 13.3377 3.55203L12.8753 1.75131C12.7618 1.30915 12.3633 1 11.9068 1H9.03256C8.54538 1 8.12909 1.35108 8.0469 1.83128Z" stroke="#818181"/>
<circle cx="10.5" cy="10.5" r="3" stroke="#818181"/>
</svg>
